<svg width="1458" height="589" viewBox="0 0 1458 589" fill="none" xmlns="http://www.w3.org/2000/svg">
<g filter="url(#filter0_d)">
<path d="M339.371 463.86C335.931 463.86 334.211 465.72 334.211 469.44V472.2H343.451V476.94H334.331V504H328.571V476.94H323.171V472.2H328.571V469.38C328.571 466.22 329.491 463.72 331.331 461.88C333.171 460.04 335.751 459.12 339.071 459.12C340.351 459.12 341.551 459.28 342.671 459.6C343.791 459.92 344.751 460.38 345.551 460.98L343.811 465.36C342.491 464.36 341.011 463.86 339.371 463.86ZM362.035 504.36C358.875 504.36 356.035 503.66 353.515 502.26C350.995 500.86 349.015 498.94 347.575 496.5C346.175 494.02 345.475 491.22 345.475 488.1C345.475 484.98 346.175 482.2 347.575 479.76C349.015 477.28 350.995 475.36 353.515 474C356.035 472.6 358.875 471.9 362.035 471.9C365.195 471.9 368.015 472.6 370.495 474C373.015 475.36 374.975 477.28 376.375 479.76C377.815 482.2 378.535 484.98 378.535 488.1C378.535 491.22 377.815 494.02 376.375 496.5C374.975 498.94 373.015 500.86 370.495 502.26C368.015 503.66 365.195 504.36 362.035 504.36ZM362.035 499.32C364.075 499.32 365.895 498.86 367.495 497.94C369.135 496.98 370.415 495.66 371.335 493.98C372.255 492.26 372.715 490.3 372.715 488.1C372.715 485.9 372.255 483.96 371.335 482.28C370.415 480.56 369.135 479.24 367.495 478.32C365.895 477.4 364.075 476.94 362.035 476.94C359.995 476.94 358.155 477.4 356.515 478.32C354.915 479.24 353.635 480.56 352.675 482.28C351.755 483.96 351.295 485.9 351.295 488.1C351.295 490.3 351.755 492.26 352.675 493.98C353.635 495.66 354.915 496.98 356.515 497.94C358.155 498.86 359.995 499.32 362.035 499.32ZM392.021 477.54C393.021 475.7 394.501 474.3 396.461 473.34C398.421 472.38 400.801 471.9 403.601 471.9V477.48C403.281 477.44 402.841 477.42 402.281 477.42C399.161 477.42 396.701 478.36 394.901 480.24C393.141 482.08 392.261 484.72 392.261 488.16V504H386.501V472.2H392.021V477.54ZM464.544 462L446.124 504H440.184L421.704 462H428.184L443.304 496.5L458.544 462H464.544ZM486.28 462C491.72 462 496 463.3 499.12 465.9C502.24 468.5 503.8 472.08 503.8 476.64C503.8 481.2 502.24 484.78 499.12 487.38C496 489.98 491.72 491.28 486.28 491.28H475.9V504H469.9V462H486.28ZM486.1 486.06C489.9 486.06 492.8 485.26 494.8 483.66C496.8 482.02 497.8 479.68 497.8 476.64C497.8 473.6 496.8 471.28 494.8 469.68C492.8 468.04 489.9 467.22 486.1 467.22H475.9V486.06H486.1ZM588.654 462L574.614 504H568.314L556.854 470.46L545.394 504H538.974L524.934 462H531.114L542.454 496.14L554.274 462H559.794L571.374 496.32L582.954 462H588.654ZM621.491 488.28C621.491 488.72 621.451 489.3 621.371 490.02H595.571C595.931 492.82 597.151 495.08 599.231 496.8C601.351 498.48 603.971 499.32 607.091 499.32C610.891 499.32 613.951 498.04 616.271 495.48L619.451 499.2C618.011 500.88 616.211 502.16 614.051 503.04C611.931 503.92 609.551 504.36 606.911 504.36C603.551 504.36 600.571 503.68 597.971 502.32C595.371 500.92 593.351 498.98 591.911 496.5C590.511 494.02 589.811 491.22 589.811 488.1C589.811 485.02 590.491 482.24 591.851 479.76C593.251 477.28 595.151 475.36 597.551 474C599.991 472.6 602.731 471.9 605.771 471.9C608.811 471.9 611.511 472.6 613.871 474C616.271 475.36 618.131 477.28 619.451 479.76C620.811 482.24 621.491 485.08 621.491 488.28ZM605.771 476.76C603.011 476.76 600.691 477.6 598.811 479.28C596.971 480.96 595.891 483.16 595.571 485.88H615.971C615.651 483.2 614.551 481.02 612.671 479.34C610.831 477.62 608.531 476.76 605.771 476.76ZM629.489 459.48H635.249V504H629.489V459.48ZM657.887 463.86C654.447 463.86 652.727 465.72 652.727 469.44V472.2H661.967V476.94H652.847V504H647.087V476.94H641.687V472.2H647.087V469.38C647.087 466.22 648.007 463.72 649.847 461.88C651.687 460.04 654.267 459.12 657.587 459.12C658.867 459.12 660.067 459.28 661.187 459.6C662.307 459.92 663.267 460.38 664.067 460.98L662.327 465.36C661.007 464.36 659.527 463.86 657.887 463.86ZM678.394 471.9C682.794 471.9 686.154 472.98 688.474 475.14C690.834 477.3 692.014 480.52 692.014 484.8V504H686.554V499.8C685.594 501.28 684.214 502.42 682.414 503.22C680.654 503.98 678.554 504.36 676.114 504.36C672.554 504.36 669.694 503.5 667.534 501.78C665.414 500.06 664.354 497.8 664.354 495C664.354 492.2 665.374 489.96 667.414 488.28C669.454 486.56 672.694 485.7 677.134 485.7H686.254V484.56C686.254 482.08 685.534 480.18 684.094 478.86C682.654 477.54 680.534 476.88 677.734 476.88C675.854 476.88 674.014 477.2 672.214 477.84C670.414 478.44 668.894 479.26 667.654 480.3L665.254 475.98C666.894 474.66 668.854 473.66 671.134 472.98C673.414 472.26 675.834 471.9 678.394 471.9ZM677.074 499.92C679.274 499.92 681.174 499.44 682.774 498.48C684.374 497.48 685.534 496.08 686.254 494.28V489.84H677.374C672.494 489.84 670.054 491.48 670.054 494.76C670.054 496.36 670.674 497.62 671.914 498.54C673.154 499.46 674.874 499.92 677.074 499.92ZM708.193 477.54C709.193 475.7 710.673 474.3 712.633 473.34C714.593 472.38 716.973 471.9 719.773 471.9V477.48C719.453 477.44 719.013 477.42 718.453 477.42C715.333 477.42 712.873 478.36 711.073 480.24C709.313 482.08 708.433 484.72 708.433 488.16V504H702.673V472.2H708.193V477.54ZM755.319 488.28C755.319 488.72 755.279 489.3 755.199 490.02H729.399C729.759 492.82 730.979 495.08 733.059 496.8C735.179 498.48 737.799 499.32 740.919 499.32C744.719 499.32 747.779 498.04 750.099 495.48L753.279 499.2C751.839 500.88 750.039 502.16 747.879 503.04C745.759 503.92 743.379 504.36 740.739 504.36C737.379 504.36 734.399 503.68 731.799 502.32C729.199 500.92 727.179 498.98 725.739 496.5C724.339 494.02 723.639 491.22 723.639 488.1C723.639 485.02 724.319 482.24 725.679 479.76C727.079 477.28 728.979 475.36 731.379 474C733.819 472.6 736.559 471.9 739.599 471.9C742.639 471.9 745.339 472.6 747.699 474C750.099 475.36 751.959 477.28 753.279 479.76C754.639 482.24 755.319 485.08 755.319 488.28ZM739.599 476.76C736.839 476.76 734.519 477.6 732.639 479.28C730.799 480.96 729.719 483.16 729.399 485.88H749.799C749.479 483.2 748.379 481.02 746.499 479.34C744.659 477.62 742.359 476.76 739.599 476.76ZM791.011 471.9C795.411 471.9 798.771 472.98 801.091 475.14C803.451 477.3 804.631 480.52 804.631 484.8V504H799.171V499.8C798.211 501.28 796.831 502.42 795.031 503.22C793.271 503.98 791.171 504.36 788.731 504.36C785.171 504.36 782.311 503.5 780.151 501.78C778.031 500.06 776.971 497.8 776.971 495C776.971 492.2 777.991 489.96 780.031 488.28C782.071 486.56 785.311 485.7 789.751 485.7H798.871V484.56C798.871 482.08 798.151 480.18 796.711 478.86C795.271 477.54 793.151 476.88 790.351 476.88C788.471 476.88 786.631 477.2 784.831 477.84C783.031 478.44 781.511 479.26 780.271 480.3L777.871 475.98C779.511 474.66 781.471 473.66 783.751 472.98C786.031 472.26 788.451 471.9 791.011 471.9ZM789.691 499.92C791.891 499.92 793.791 499.44 795.391 498.48C796.991 497.48 798.151 496.08 798.871 494.28V489.84H789.991C785.111 489.84 782.671 491.48 782.671 494.76C782.671 496.36 783.291 497.62 784.531 498.54C785.771 499.46 787.491 499.92 789.691 499.92ZM832.27 471.9C836.31 471.9 839.51 473.08 841.87 475.44C844.27 477.76 845.47 481.18 845.47 485.7V504H839.71V486.36C839.71 483.28 838.97 480.96 837.49 479.4C836.01 477.84 833.89 477.06 831.13 477.06C828.01 477.06 825.55 477.98 823.75 479.82C821.95 481.62 821.05 484.22 821.05 487.62V504H815.29V472.2H820.81V477C821.97 475.36 823.53 474.1 825.49 473.22C827.49 472.34 829.75 471.9 832.27 471.9ZM886.306 459.48V504H880.786V498.96C879.506 500.72 877.886 502.06 875.926 502.98C873.966 503.9 871.806 504.36 869.446 504.36C866.366 504.36 863.606 503.68 861.166 502.32C858.726 500.96 856.806 499.06 855.406 496.62C854.046 494.14 853.366 491.3 853.366 488.1C853.366 484.9 854.046 482.08 855.406 479.64C856.806 477.2 858.726 475.3 861.166 473.94C863.606 472.58 866.366 471.9 869.446 471.9C871.726 471.9 873.826 472.34 875.746 473.22C877.666 474.06 879.266 475.32 880.546 477V459.48H886.306ZM869.926 499.32C871.926 499.32 873.746 498.86 875.386 497.94C877.026 496.98 878.306 495.66 879.226 493.98C880.146 492.26 880.606 490.3 880.606 488.1C880.606 485.9 880.146 483.96 879.226 482.28C878.306 480.56 877.026 479.24 875.386 478.32C873.746 477.4 871.926 476.94 869.926 476.94C867.886 476.94 866.046 477.4 864.406 478.32C862.806 479.24 861.526 480.56 860.566 482.28C859.646 483.96 859.186 485.9 859.186 488.1C859.186 490.3 859.646 492.26 860.566 493.98C861.526 495.66 862.806 496.98 864.406 497.94C866.046 498.86 867.886 499.32 869.926 499.32ZM932.937 504.48C928.737 504.48 924.937 503.56 921.537 501.72C918.177 499.84 915.537 497.28 913.617 494.04C911.697 490.76 910.737 487.08 910.737 483C910.737 478.92 911.697 475.26 913.617 472.02C915.537 468.74 918.197 466.18 921.597 464.34C924.997 462.46 928.797 461.52 932.997 461.52C936.277 461.52 939.277 462.08 941.997 463.2C944.717 464.28 947.037 465.9 948.957 468.06L945.057 471.84C941.897 468.52 937.957 466.86 933.237 466.86C930.117 466.86 927.297 467.56 924.777 468.96C922.257 470.36 920.277 472.3 918.837 474.78C917.437 477.22 916.737 479.96 916.737 483C916.737 486.04 917.437 488.8 918.837 491.28C920.277 493.72 922.257 495.64 924.777 497.04C927.297 498.44 930.117 499.14 933.237 499.14C937.917 499.14 941.857 497.46 945.057 494.1L948.957 497.88C947.037 500.04 944.697 501.68 941.937 502.8C939.217 503.92 936.217 504.48 932.937 504.48ZM968.949 504.36C965.789 504.36 962.949 503.66 960.429 502.26C957.909 500.86 955.929 498.94 954.489 496.5C953.089 494.02 952.389 491.22 952.389 488.1C952.389 484.98 953.089 482.2 954.489 479.76C955.929 477.28 957.909 475.36 960.429 474C962.949 472.6 965.789 471.9 968.949 471.9C972.109 471.9 974.929 472.6 977.409 474C979.929 475.36 981.889 477.28 983.289 479.76C984.729 482.2 985.449 484.98 985.449 488.1C985.449 491.22 984.729 494.02 983.289 496.5C981.889 498.94 979.929 500.86 977.409 502.26C974.929 503.66 972.109 504.36 968.949 504.36ZM968.949 499.32C970.989 499.32 972.809 498.86 974.409 497.94C976.049 496.98 977.329 495.66 978.249 493.98C979.169 492.26 979.629 490.3 979.629 488.1C979.629 485.9 979.169 483.96 978.249 482.28C977.329 480.56 976.049 479.24 974.409 478.32C972.809 477.4 970.989 476.94 968.949 476.94C966.909 476.94 965.069 477.4 963.429 478.32C961.829 479.24 960.549 480.56 959.589 482.28C958.669 483.96 958.209 485.9 958.209 488.1C958.209 490.3 958.669 492.26 959.589 493.98C960.549 495.66 961.829 496.98 963.429 497.94C965.069 498.86 966.909 499.32 968.949 499.32ZM1033.2 471.9C1037.2 471.9 1040.36 473.06 1042.68 475.38C1045.04 477.7 1046.22 481.14 1046.22 485.7V504H1040.46V486.36C1040.46 483.28 1039.74 480.96 1038.3 479.4C1036.9 477.84 1034.88 477.06 1032.24 477.06C1029.32 477.06 1027 477.98 1025.28 479.82C1023.56 481.62 1022.7 484.22 1022.7 487.62V504H1016.94V486.36C1016.94 483.28 1016.22 480.96 1014.78 479.4C1013.38 477.84 1011.36 477.06 1008.72 477.06C1005.8 477.06 1003.48 477.98 1001.76 479.82C1000.04 481.62 999.175 484.22 999.175 487.62V504H993.415V472.2H998.935V476.94C1000.1 475.3 1001.62 474.06 1003.5 473.22C1005.38 472.34 1007.52 471.9 1009.92 471.9C1012.4 471.9 1014.6 472.4 1016.52 473.4C1018.44 474.4 1019.92 475.86 1020.96 477.78C1022.16 475.94 1023.82 474.5 1025.94 473.46C1028.1 472.42 1030.52 471.9 1033.2 471.9ZM1096.59 471.9C1100.59 471.9 1103.75 473.06 1106.07 475.38C1108.43 477.7 1109.61 481.14 1109.61 485.7V504H1103.85V486.36C1103.85 483.28 1103.13 480.96 1101.69 479.4C1100.29 477.84 1098.27 477.06 1095.63 477.06C1092.71 477.06 1090.39 477.98 1088.67 479.82C1086.95 481.62 1086.09 484.22 1086.09 487.62V504H1080.33V486.36C1080.33 483.28 1079.61 480.96 1078.17 479.4C1076.77 477.84 1074.75 477.06 1072.11 477.06C1069.19 477.06 1066.87 477.98 1065.15 479.82C1063.43 481.62 1062.57 484.22 1062.57 487.62V504H1056.81V472.2H1062.33V476.94C1063.49 475.3 1065.01 474.06 1066.89 473.22C1068.77 472.34 1070.91 471.9 1073.31 471.9C1075.79 471.9 1077.99 472.4 1079.91 473.4C1081.83 474.4 1083.31 475.86 1084.35 477.78C1085.55 475.94 1087.21 474.5 1089.33 473.46C1091.49 472.42 1093.91 471.9 1096.59 471.9ZM1149.85 472.2V504H1144.39V499.2C1143.23 500.84 1141.69 502.12 1139.77 503.04C1137.89 503.92 1135.83 504.36 1133.59 504.36C1129.35 504.36 1126.01 503.2 1123.57 500.88C1121.13 498.52 1119.91 495.06 1119.91 490.5V472.2H1125.67V489.84C1125.67 492.92 1126.41 495.26 1127.89 496.86C1129.37 498.42 1131.49 499.2 1134.25 499.2C1137.29 499.2 1139.69 498.28 1141.45 496.44C1143.21 494.6 1144.09 492 1144.09 488.64V472.2H1149.85ZM1177.8 471.9C1181.84 471.9 1185.04 473.08 1187.4 475.44C1189.8 477.76 1191 481.18 1191 485.7V504H1185.24V486.36C1185.24 483.28 1184.5 480.96 1183.02 479.4C1181.54 477.84 1179.42 477.06 1176.66 477.06C1173.54 477.06 1171.08 477.98 1169.28 479.82C1167.48 481.62 1166.58 484.22 1166.58 487.62V504H1160.82V472.2H1166.34V477C1167.5 475.36 1169.06 474.1 1171.02 473.22C1173.02 472.34 1175.28 471.9 1177.8 471.9ZM1201.66 472.2H1207.42V504H1201.66V472.2ZM1204.54 466.08C1203.42 466.08 1202.48 465.72 1201.72 465C1201 464.28 1200.64 463.4 1200.64 462.36C1200.64 461.32 1201 460.44 1201.72 459.72C1202.48 458.96 1203.42 458.58 1204.54 458.58C1205.66 458.58 1206.58 458.94 1207.3 459.66C1208.06 460.34 1208.44 461.2 1208.44 462.24C1208.44 463.32 1208.06 464.24 1207.3 465C1206.58 465.72 1205.66 466.08 1204.54 466.08ZM1236.3 502.14C1235.46 502.86 1234.42 503.42 1233.18 503.82C1231.94 504.18 1230.66 504.36 1229.34 504.36C1226.14 504.36 1223.66 503.5 1221.9 501.78C1220.14 500.06 1219.26 497.6 1219.26 494.4V476.94H1213.86V472.2H1219.26V465.24H1225.02V472.2H1234.14V476.94H1225.02V494.16C1225.02 495.88 1225.44 497.2 1226.28 498.12C1227.16 499.04 1228.4 499.5 1230 499.5C1231.76 499.5 1233.26 499 1234.5 498L1236.3 502.14ZM1270.81 472.2L1255.39 507.18C1254.03 510.42 1252.43 512.7 1250.59 514.02C1248.79 515.34 1246.61 516 1244.05 516C1242.49 516 1240.97 515.74 1239.49 515.22C1238.05 514.74 1236.85 514.02 1235.89 513.06L1238.35 508.74C1239.99 510.3 1241.89 511.08 1244.05 511.08C1245.45 511.08 1246.61 510.7 1247.53 509.94C1248.49 509.22 1249.35 507.96 1250.11 506.16L1251.13 503.94L1237.09 472.2H1243.09L1254.19 497.64L1265.17 472.2H1270.81Z" fill="url(#paint0_linear)"/>
</g>
<g filter="url(#filter1_d)">
<path d="M339.52 379.96C341.76 376.84 344.76 374.48 348.52 372.88C352.36 371.28 356.76 370.48 361.72 370.48V387.76C359.64 387.6 358.24 387.52 357.52 387.52C352.16 387.52 347.96 389.04 344.92 392.08C341.88 395.04 340.36 399.52 340.36 405.52V436H321.64V371.44H339.52V379.96ZM402.985 436.96C396.185 436.96 390.065 435.56 384.625 432.76C379.265 429.88 375.065 425.92 372.025 420.88C368.985 415.84 367.465 410.12 367.465 403.72C367.465 397.32 368.985 391.6 372.025 386.56C375.065 381.52 379.265 377.6 384.625 374.8C390.065 371.92 396.185 370.48 402.985 370.48C409.785 370.48 415.865 371.92 421.225 374.8C426.585 377.6 430.785 381.52 433.825 386.56C436.865 391.6 438.385 397.32 438.385 403.72C438.385 410.12 436.865 415.84 433.825 420.88C430.785 425.92 426.585 429.88 421.225 432.76C415.865 435.56 409.785 436.96 402.985 436.96ZM402.985 421.6C407.785 421.6 411.705 420 414.745 416.8C417.865 413.52 419.425 409.16 419.425 403.72C419.425 398.28 417.865 393.96 414.745 390.76C411.705 387.48 407.785 385.84 402.985 385.84C398.185 385.84 394.225 387.48 391.105 390.76C387.985 393.96 386.425 398.28 386.425 403.72C386.425 409.16 387.985 413.52 391.105 416.8C394.225 420 398.185 421.6 402.985 421.6ZM472.618 436.96C467.258 436.96 462.018 436.32 456.898 435.04C451.778 433.68 447.698 432 444.658 430L450.898 416.56C453.778 418.4 457.258 419.92 461.338 421.12C465.418 422.24 469.418 422.8 473.338 422.8C481.258 422.8 485.218 420.84 485.218 416.92C485.218 415.08 484.138 413.76 481.978 412.96C479.818 412.16 476.498 411.48 472.018 410.92C466.738 410.12 462.378 409.2 458.938 408.16C455.498 407.12 452.498 405.28 449.938 402.64C447.458 400 446.218 396.24 446.218 391.36C446.218 387.28 447.378 383.68 449.698 380.56C452.098 377.36 455.538 374.88 460.018 373.12C464.578 371.36 469.938 370.48 476.098 370.48C480.658 370.48 485.178 371 489.658 372.04C494.218 373 497.978 374.36 500.938 376.12L494.698 389.44C489.018 386.24 482.818 384.64 476.098 384.64C472.098 384.64 469.098 385.2 467.098 386.32C465.098 387.44 464.098 388.88 464.098 390.64C464.098 392.64 465.178 394.04 467.338 394.84C469.498 395.64 472.938 396.4 477.658 397.12C482.938 398 487.258 398.96 490.618 400C493.978 400.96 496.898 402.76 499.378 405.4C501.858 408.04 503.098 411.72 503.098 416.44C503.098 420.44 501.898 424 499.498 427.12C497.098 430.24 493.578 432.68 488.938 434.44C484.378 436.12 478.938 436.96 472.618 436.96ZM556.288 432.88C554.448 434.24 552.168 435.28 549.448 436C546.808 436.64 544.008 436.96 541.048 436.96C533.368 436.96 527.408 435 523.168 431.08C519.008 427.16 516.928 421.4 516.928 413.8V387.28H506.968V372.88H516.928V357.16H535.648V372.88H551.728V387.28H535.648V413.56C535.648 416.28 536.328 418.4 537.688 419.92C539.128 421.36 541.128 422.08 543.688 422.08C546.648 422.08 549.168 421.28 551.248 419.68L556.288 432.88ZM566.796 371.44H585.516V436H566.796V371.44ZM576.156 362.44C572.716 362.44 569.916 361.44 567.756 359.44C565.596 357.44 564.516 354.96 564.516 352C564.516 349.04 565.596 346.56 567.756 344.56C569.916 342.56 572.716 341.56 576.156 341.56C579.596 341.56 582.396 342.52 584.556 344.44C586.716 346.36 587.796 348.76 587.796 351.64C587.796 354.76 586.716 357.36 584.556 359.44C582.396 361.44 579.596 362.44 576.156 362.44ZM624.61 436.96C619.25 436.96 614.01 436.32 608.89 435.04C603.77 433.68 599.69 432 596.65 430L602.89 416.56C605.77 418.4 609.25 419.92 613.33 421.12C617.41 422.24 621.41 422.8 625.33 422.8C633.25 422.8 637.21 420.84 637.21 416.92C637.21 415.08 636.13 413.76 633.97 412.96C631.81 412.16 628.49 411.48 624.01 410.92C618.73 410.12 614.37 409.2 610.93 408.16C607.49 407.12 604.49 405.28 601.93 402.64C599.45 400 598.21 396.24 598.21 391.36C598.21 387.28 599.37 383.68 601.69 380.56C604.09 377.36 607.53 374.88 612.01 373.12C616.57 371.36 621.93 370.48 628.09 370.48C632.65 370.48 637.17 371 641.65 372.04C646.21 373 649.97 374.36 652.93 376.12L646.69 389.44C641.01 386.24 634.81 384.64 628.09 384.64C624.09 384.64 621.09 385.2 619.09 386.32C617.09 387.44 616.09 388.88 616.09 390.64C616.09 392.64 617.17 394.04 619.33 394.84C621.49 395.64 624.93 396.4 629.65 397.12C634.93 398 639.25 398.96 642.61 400C645.97 400.96 648.89 402.76 651.37 405.4C653.85 408.04 655.09 411.72 655.09 416.44C655.09 420.44 653.89 424 651.49 427.12C649.09 430.24 645.57 432.68 640.93 434.44C636.37 436.12 630.93 436.96 624.61 436.96ZM666.64 346.96H685.36V436H666.64V346.96ZM728.774 370.48C738.774 370.48 746.454 372.88 751.814 377.68C757.174 382.4 759.854 389.56 759.854 399.16V436H742.334V427.96C738.814 433.96 732.254 436.96 722.654 436.96C717.694 436.96 713.374 436.12 709.694 434.44C706.094 432.76 703.334 430.44 701.414 427.48C699.494 424.52 698.534 421.16 698.534 417.4C698.534 411.4 700.774 406.68 705.254 403.24C709.814 399.8 716.814 398.08 726.254 398.08H741.134C741.134 394 739.894 390.88 737.414 388.72C734.934 386.48 731.214 385.36 726.254 385.36C722.814 385.36 719.414 385.92 716.054 387.04C712.774 388.08 709.974 389.52 707.654 391.36L700.934 378.28C704.454 375.8 708.654 373.88 713.534 372.52C718.494 371.16 723.574 370.48 728.774 370.48ZM727.334 424.36C730.534 424.36 733.374 423.64 735.854 422.2C738.334 420.68 740.094 418.48 741.134 415.6V409H728.294C720.614 409 716.774 411.52 716.774 416.56C716.774 418.96 717.694 420.88 719.534 422.32C721.454 423.68 724.054 424.36 727.334 424.36ZM839.704 371.44L812.464 436H793.144L766.024 371.44H785.344L803.224 415.36L821.704 371.44H839.704ZM868.126 436.96C862.766 436.96 857.526 436.32 852.406 435.04C847.286 433.68 843.206 432 840.166 430L846.406 416.56C849.286 418.4 852.766 419.92 856.846 421.12C860.926 422.24 864.926 422.8 868.846 422.8C876.766 422.8 880.726 420.84 880.726 416.92C880.726 415.08 879.646 413.76 877.486 412.96C875.326 412.16 872.006 411.48 867.526 410.92C862.246 410.12 857.886 409.2 854.446 408.16C851.006 407.12 848.006 405.28 845.446 402.64C842.966 400 841.726 396.24 841.726 391.36C841.726 387.28 842.886 383.68 845.206 380.56C847.606 377.36 851.046 374.88 855.526 373.12C860.086 371.36 865.446 370.48 871.606 370.48C876.166 370.48 880.686 371 885.166 372.04C889.726 373 893.486 374.36 896.446 376.12L890.206 389.44C884.526 386.24 878.326 384.64 871.606 384.64C867.606 384.64 864.606 385.2 862.606 386.32C860.606 387.44 859.606 388.88 859.606 390.64C859.606 392.64 860.686 394.04 862.846 394.84C865.006 395.64 868.446 396.4 873.166 397.12C878.446 398 882.766 398.96 886.126 400C889.486 400.96 892.406 402.76 894.886 405.4C897.366 408.04 898.606 411.72 898.606 416.44C898.606 420.44 897.406 424 895.006 427.12C892.606 430.24 889.086 432.68 884.446 434.44C879.886 436.12 874.446 436.96 868.126 436.96ZM982.3 370.48C988.3 370.48 993.74 371.88 998.62 374.68C1003.58 377.4 1007.46 381.28 1010.26 386.32C1013.06 391.28 1014.46 397.08 1014.46 403.72C1014.46 410.36 1013.06 416.2 1010.26 421.24C1007.46 426.2 1003.58 430.08 998.62 432.88C993.74 435.6 988.3 436.96 982.3 436.96C974.06 436.96 967.58 434.36 962.86 429.16V459.28H944.14V371.44H962.02V378.88C966.66 373.28 973.42 370.48 982.3 370.48ZM979.06 421.6C983.86 421.6 987.78 420 990.82 416.8C993.94 413.52 995.5 409.16 995.5 403.72C995.5 398.28 993.94 393.96 990.82 390.76C987.78 387.48 983.86 385.84 979.06 385.84C974.26 385.84 970.3 387.48 967.18 390.76C964.14 393.96 962.62 398.28 962.62 403.72C962.62 409.16 964.14 413.52 967.18 416.8C970.3 420 974.26 421.6 979.06 421.6ZM1057.71 436.96C1050.91 436.96 1044.79 435.56 1039.35 432.76C1033.99 429.88 1029.79 425.92 1026.75 420.88C1023.71 415.84 1022.19 410.12 1022.19 403.72C1022.19 397.32 1023.71 391.6 1026.75 386.56C1029.79 381.52 1033.99 377.6 1039.35 374.8C1044.79 371.92 1050.91 370.48 1057.71 370.48C1064.51 370.48 1070.59 371.92 1075.95 374.8C1081.31 377.6 1085.51 381.52 1088.55 386.56C1091.59 391.6 1093.11 397.32 1093.11 403.72C1093.11 410.12 1091.59 415.84 1088.55 420.88C1085.51 425.92 1081.31 429.88 1075.95 432.76C1070.59 435.56 1064.51 436.96 1057.71 436.96ZM1057.71 421.6C1062.51 421.6 1066.43 420 1069.47 416.8C1072.59 413.52 1074.15 409.16 1074.15 403.72C1074.15 398.28 1072.59 393.96 1069.47 390.76C1066.43 387.48 1062.51 385.84 1057.71 385.84C1052.91 385.84 1048.95 387.48 1045.83 390.76C1042.71 393.96 1041.15 398.28 1041.15 403.72C1041.15 409.16 1042.71 413.52 1045.83 416.8C1048.95 420 1052.91 421.6 1057.71 421.6ZM1143.78 370.48C1149.78 370.48 1155.22 371.88 1160.1 374.68C1165.06 377.4 1168.94 381.28 1171.74 386.32C1174.54 391.28 1175.94 397.08 1175.94 403.72C1175.94 410.36 1174.54 416.2 1171.74 421.24C1168.94 426.2 1165.06 430.08 1160.1 432.88C1155.22 435.6 1149.78 436.96 1143.78 436.96C1135.54 436.96 1129.06 434.36 1124.34 429.16V459.28H1105.62V371.44H1123.5V378.88C1128.14 373.28 1134.9 370.48 1143.78 370.48ZM1140.54 421.6C1145.34 421.6 1149.26 420 1152.3 416.8C1155.42 413.52 1156.98 409.16 1156.98 403.72C1156.98 398.28 1155.42 393.96 1152.3 390.76C1149.26 387.48 1145.34 385.84 1140.54 385.84C1135.74 385.84 1131.78 387.48 1128.66 390.76C1125.62 393.96 1124.1 398.28 1124.1 403.72C1124.1 409.16 1125.62 413.52 1128.66 416.8C1131.78 420 1135.74 421.6 1140.54 421.6ZM1219.2 436.96C1212.4 436.96 1206.28 435.56 1200.84 432.76C1195.48 429.88 1191.28 425.92 1188.24 420.88C1185.2 415.84 1183.68 410.12 1183.68 403.72C1183.68 397.32 1185.2 391.6 1188.24 386.56C1191.28 381.52 1195.48 377.6 1200.84 374.8C1206.28 371.92 1212.4 370.48 1219.2 370.48C1226 370.48 1232.08 371.92 1237.44 374.8C1242.8 377.6 1247 381.52 1250.04 386.56C1253.08 391.6 1254.6 397.32 1254.6 403.72C1254.6 410.12 1253.08 415.84 1250.04 420.88C1247 425.92 1242.8 429.88 1237.44 432.76C1232.08 435.56 1226 436.96 1219.2 436.96ZM1219.2 421.6C1224 421.6 1227.92 420 1230.96 416.8C1234.08 413.52 1235.64 409.16 1235.64 403.72C1235.64 398.28 1234.08 393.96 1230.96 390.76C1227.92 387.48 1224 385.84 1219.2 385.84C1214.4 385.84 1210.44 387.48 1207.32 390.76C1204.2 393.96 1202.64 398.28 1202.64 403.72C1202.64 409.16 1204.2 413.52 1207.32 416.8C1210.44 420 1214.4 421.6 1219.2 421.6ZM1329.43 371.44L1302.19 436H1282.87L1255.75 371.44H1275.07L1292.95 415.36L1311.43 371.44H1329.43ZM1357.85 436.96C1352.49 436.96 1347.25 436.32 1342.13 435.04C1337.01 433.68 1332.93 432 1329.89 430L1336.13 416.56C1339.01 418.4 1342.49 419.92 1346.57 421.12C1350.65 422.24 1354.65 422.8 1358.57 422.8C1366.49 422.8 1370.45 420.84 1370.45 416.92C1370.45 415.08 1369.37 413.76 1367.21 412.96C1365.05 412.16 1361.73 411.48 1357.25 410.92C1351.97 410.12 1347.61 409.2 1344.17 408.16C1340.73 407.12 1337.73 405.28 1335.17 402.64C1332.69 400 1331.45 396.24 1331.45 391.36C1331.45 387.28 1332.61 383.68 1334.93 380.56C1337.33 377.36 1340.77 374.88 1345.25 373.12C1349.81 371.36 1355.17 370.48 1361.33 370.48C1365.89 370.48 1370.41 371 1374.89 372.04C1379.45 373 1383.21 374.36 1386.17 376.12L1379.93 389.44C1374.25 386.24 1368.05 384.64 1361.33 384.64C1357.33 384.64 1354.33 385.2 1352.33 386.32C1350.33 387.44 1349.33 388.88 1349.33 390.64C1349.33 392.64 1350.41 394.04 1352.57 394.84C1354.73 395.64 1358.17 396.4 1362.89 397.12C1368.17 398 1372.49 398.96 1375.85 400C1379.21 400.96 1382.13 402.76 1384.61 405.4C1387.09 408.04 1388.33 411.72 1388.33 416.44C1388.33 420.44 1387.13 424 1384.73 427.12C1382.33 430.24 1378.81 432.68 1374.17 434.44C1369.61 436.12 1364.17 436.96 1357.85 436.96Z" fill="url(#paint1_linear)"/>
</g>
<path d="M228.562 250.797C220.463 262.195 250.373 348.578 265.015 350.397C276.825 351.864 344.011 293.938 333.676 264.707C328.507 250.085 236.661 239.399 228.562 250.797Z" fill="url(#paint2_linear)" stroke="url(#paint3_linear)" stroke-width="0.0913825"/>
<path d="M653.387 279.704C661.597 212.218 593.077 67.8482 525.504 21.4859C481.708 -8.56234 327.573 216.839 348.804 257.795C371.519 301.614 647.404 328.883 653.387 279.704Z" fill="url(#paint4_linear)" stroke="url(#paint5_linear)" stroke-width="0.288748"/>
<path d="M41.2313 315.832C53.29 322.783 201.025 261.08 201.917 240.462C202.466 227.784 79.4969 123.483 59.5919 132.259C46.8196 137.89 38.7971 181.805 35.6839 225.301C32.5706 268.798 34.3666 311.875 41.2313 315.832Z" fill="url(#paint6_linear)"/>
<path d="M217.741 224.468L287.175 126.679L163.791 115.196L217.741 224.468Z" fill="url(#paint7_linear)"/>
<defs>
<filter id="filter0_d" x="254.171" y="393.58" width="1085.64" height="195.42" filterUnits="userSpaceOnUse" color-interpolation-filters="sRGB">
<feFlood flood-opacity="0" result="BackgroundImageFix"/>
<feColorMatrix in="SourceAlpha" type="matrix" values="0 0 0 0 0 0 0 0 0 0 0 0 0 0 0 0 0 0 127 0"/>
<feOffset dy="4"/>
<feGaussianBlur stdDeviation="34.5"/>
<feColorMatrix type="matrix" values="0 0 0 0 0 0 0 0 0 0 0 0 0 0 0 0 0 0 0.13 0"/>
<feBlend mode="normal" in2="BackgroundImageFix" result="effect1_dropShadow"/>
<feBlend mode="normal" in="SourceGraphic" in2="effect1_dropShadow" result="shape"/>
</filter>
<filter id="filter1_d" x="252.64" y="276.56" width="1204.69" height="255.72" filterUnits="userSpaceOnUse" color-interpolation-filters="sRGB">
<feFlood flood-opacity="0" result="BackgroundImageFix"/>
<feColorMatrix in="SourceAlpha" type="matrix" values="0 0 0 0 0 0 0 0 0 0 0 0 0 0 0 0 0 0 127 0"/>
<feOffset dy="4"/>
<feGaussianBlur stdDeviation="34.5"/>
<feColorMatrix type="matrix" values="0 0 0 0 0 0 0 0 0 0 0 0 0 0 0 0 0 0 0.13 0"/>
<feBlend mode="normal" in2="BackgroundImageFix" result="effect1_dropShadow"/>
<feBlend mode="normal" in="SourceGraphic" in2="effect1_dropShadow" result="shape"/>
</filter>
<linearGradient id="paint0_linear" x1="1269.07" y1="583.5" x2="159.883" y2="573.193" gradientUnits="userSpaceOnUse">
<stop stop-color="#56CCF2"/>
<stop offset="1" stop-color="#2F80ED"/>
</linearGradient>
<linearGradient id="paint1_linear" x1="1299.23" y1="392" x2="313.056" y2="376.438" gradientUnits="userSpaceOnUse">
<stop stop-color="#0099FF"/>
<stop offset="1" stop-color="#619FF1"/>
</linearGradient>
<linearGradient id="paint2_linear" x1="292.456" y1="276.976" x2="244.989" y2="371.373" gradientUnits="userSpaceOnUse">
<stop stop-color="#06BEB6"/>
<stop offset="1" stop-color="#48B1BF"/>
</linearGradient>
<linearGradient id="paint3_linear" x1="244.867" y1="371.312" x2="117.836" y2="323.329" gradientUnits="userSpaceOnUse">
<stop stop-color="#06BEB6"/>
<stop offset="1" stop-color="#48B1BF"/>
</linearGradient>
<linearGradient id="paint4_linear" x1="383.413" y1="241.46" x2="657.526" y2="67.2241" gradientUnits="userSpaceOnUse">
<stop stop-color="#06BEB6"/>
<stop offset="1" stop-color="#48B1BF"/>
</linearGradient>
<linearGradient id="paint5_linear" x1="2127.88" y1="-575.029" x2="2132.34" y2="-725.022" gradientUnits="userSpaceOnUse">
<stop stop-color="#4568DC" stop-opacity="0"/>
<stop offset="1" stop-color="#B06AB3"/>
</linearGradient>
<linearGradient id="paint6_linear" x1="123.207" y1="292.15" x2="75.7995" y2="126.694" gradientUnits="userSpaceOnUse">
<stop stop-color="#C61C31"/>
<stop offset="1" stop-color="#932936"/>
</linearGradient>
<linearGradient id="paint7_linear" x1="180.833" y1="172.887" x2="291.009" y2="138.2" gradientUnits="userSpaceOnUse">
<stop stop-color="#015A84"/>
<stop offset="1" stop-color="#01486A"/>
</linearGradient>
</defs>
</svg>
