<svg width="190" height="30" viewBox="0 0 190 30" fill="none" xmlns="http://www.w3.org/2000/svg">
<path d="M0.425781 6.19141C0.425781 4.78516 1.33724 4.08203 3.16016 4.08203C3.47266 4.08203 3.74609 4.16667 3.98047 4.33594C4.21484 4.50521 4.35156 4.73958 4.39062 5.03906C4.50781 5.83333 4.61198 6.62109 4.70312 7.40234C4.79427 8.18359 4.87891 9.0625 4.95703 10.0391C5.04818 11.0026 5.13281 12.1224 5.21094 13.3984C5.30208 14.6615 5.39974 16.1719 5.50391 17.9297C5.50391 18.112 5.52995 18.2422 5.58203 18.3203C5.64714 18.3984 5.71875 18.4375 5.79688 18.4375C5.91406 18.4375 6.03125 18.3203 6.14844 18.0859C6.59115 17.1094 7.08594 16.237 7.63281 15.4688C8.17969 14.6875 8.76562 14.0299 9.39062 13.4961C10.0156 12.9492 10.6732 12.5391 11.3633 12.2656C12.0664 11.9792 12.7826 11.8359 13.5117 11.8359C14.4753 11.8359 15.3477 12.1094 16.1289 12.6562C16.9102 13.2031 17.5742 13.9779 18.1211 14.9805C18.668 15.9831 19.0911 17.2005 19.3906 18.6328C19.6901 20.0521 19.8398 21.6406 19.8398 23.3984C19.8398 23.8802 19.8008 24.2773 19.7227 24.5898C19.6576 24.8893 19.5404 25.1302 19.3711 25.3125C19.2018 25.4948 18.9674 25.6185 18.668 25.6836C18.3685 25.7617 17.9974 25.8008 17.5547 25.8008C16.9427 25.8008 16.5 25.6836 16.2266 25.4492C15.9661 25.2148 15.8359 24.8503 15.8359 24.3555C15.8359 23.1315 15.7513 21.9792 15.582 20.8984C15.4258 19.8047 15.2044 18.8477 14.918 18.0273C14.6315 17.207 14.293 16.556 13.9023 16.0742C13.5247 15.5924 13.1146 15.3516 12.6719 15.3516C11.6693 15.3516 10.6667 16.1654 9.66406 17.793C8.67448 19.4206 7.63932 21.875 6.55859 25.1562C6.45443 25.4557 6.33724 25.7031 6.20703 25.8984C6.07682 26.0938 5.92057 26.25 5.73828 26.3672C5.56901 26.4844 5.36068 26.5625 5.11328 26.6016C4.86589 26.6536 4.57292 26.6797 4.23438 26.6797C3.54427 26.6797 3.04948 26.5495 2.75 26.2891C2.46354 26.0286 2.30729 25.599 2.28125 25C2.20312 22.7344 2.0599 20.5729 1.85156 18.5156C1.65625 16.4453 1.44792 14.5768 1.22656 12.9102C1.01823 11.2305 0.829427 9.8112 0.660156 8.65234C0.503906 7.48047 0.425781 6.66016 0.425781 6.19141ZM25.3867 5.07812C25.0091 5.07812 24.651 5.02604 24.3125 4.92188C23.987 4.80469 23.7005 4.64844 23.4531 4.45312C23.2188 4.24479 23.0299 4.00391 22.8867 3.73047C22.7435 3.45703 22.6719 3.15755 22.6719 2.83203C22.6719 2.28516 22.8867 1.84245 23.3164 1.50391C23.7591 1.16536 24.3451 0.996094 25.0742 0.996094C25.4128 0.996094 25.7383 1.0612 26.0508 1.19141C26.3633 1.30859 26.6367 1.47135 26.8711 1.67969C27.1185 1.88802 27.3138 2.13542 27.457 2.42188C27.6003 2.69531 27.6719 2.98177 27.6719 3.28125C27.6719 3.84115 27.4635 4.28385 27.0469 4.60938C26.6432 4.92188 26.0898 5.07812 25.3867 5.07812ZM22.7109 11.0352C22.7109 10.5794 22.9062 10.2083 23.2969 9.92188C23.7005 9.6224 24.2279 9.47266 24.8789 9.47266C26.0508 9.47266 26.6758 9.8763 26.7539 10.6836C26.806 11.2435 26.8581 11.875 26.9102 12.5781C26.9753 13.2812 27.0339 14.0299 27.0859 14.8242C27.151 15.6055 27.2031 16.4193 27.2422 17.2656C27.2943 18.099 27.3398 18.9258 27.3789 19.7461C27.418 20.5534 27.4505 21.3346 27.4766 22.0898C27.5026 22.8451 27.5156 23.5352 27.5156 24.1602C27.5156 24.8112 27.2812 25.2995 26.8125 25.625C26.3568 25.9505 25.6862 26.1133 24.8008 26.1133C24.3971 26.1133 24.0781 26.0156 23.8438 25.8203C23.6224 25.638 23.5117 25.3646 23.5117 25C23.5117 23.2031 23.4661 21.5234 23.375 19.9609C23.2969 18.3854 23.2057 16.9857 23.1016 15.7617C23.0104 14.5378 22.9193 13.5221 22.8281 12.7148C22.75 11.8945 22.7109 11.3346 22.7109 11.0352ZM42.4375 2.44141C42.4375 1.7513 42.6328 1.26953 43.0234 0.996094C43.4141 0.709635 44.0586 0.566406 44.957 0.566406C45.2826 0.566406 45.556 0.598958 45.7773 0.664062C46.0117 0.716146 46.207 0.820312 46.3633 0.976562C46.5326 1.13281 46.6628 1.34115 46.7539 1.60156C46.8581 1.84896 46.9427 2.16797 47.0078 2.55859C47.1641 3.76953 47.3333 5.01953 47.5156 6.30859C47.7109 7.59766 47.9128 8.89323 48.1211 10.1953C48.1992 10.7812 48.5052 11.0742 49.0391 11.0742C49.1823 11.0742 49.4167 11.0612 49.7422 11.0352C50.0807 10.9961 50.4779 10.957 50.9336 10.918C51.3893 10.8659 51.8776 10.8138 52.3984 10.7617C52.9323 10.7096 53.4596 10.6641 53.9805 10.625C54.5143 10.5729 55.0156 10.5339 55.4844 10.5078C55.9661 10.4688 56.3893 10.4492 56.7539 10.4492C57.0404 10.4492 57.2682 10.5078 57.4375 10.625C57.6068 10.7292 57.737 10.8724 57.8281 11.0547C57.9323 11.224 57.9974 11.4193 58.0234 11.6406C58.0625 11.849 58.082 12.0638 58.082 12.2852C58.082 12.4805 58.043 12.6823 57.9648 12.8906C57.8997 13.099 57.8021 13.2878 57.6719 13.457C57.5547 13.6133 57.4049 13.7435 57.2227 13.8477C57.0404 13.9518 56.832 14.0039 56.5977 14.0039C55.4648 14.0039 54.319 14.043 53.1602 14.1211C52.0143 14.1862 50.8685 14.2773 49.7227 14.3945C49.1367 14.4727 48.8438 14.7656 48.8438 15.2734C48.8438 15.3125 48.8503 15.3646 48.8633 15.4297C48.8763 15.4818 48.8828 15.5273 48.8828 15.5664C49.0391 16.6992 49.1823 17.7604 49.3125 18.75C49.4557 19.7396 49.5729 20.625 49.6641 21.4062C49.7682 22.1745 49.8464 22.819 49.8984 23.3398C49.9635 23.8477 49.9961 24.1862 49.9961 24.3555C49.9961 24.8242 49.9505 25.2148 49.8594 25.5273C49.7682 25.8529 49.6185 26.1133 49.4102 26.3086C49.2018 26.5169 48.9219 26.6602 48.5703 26.7383C48.2318 26.8294 47.8021 26.875 47.2812 26.875C46.7865 26.875 46.4219 26.7578 46.1875 26.5234C45.9531 26.2891 45.8229 25.931 45.7969 25.4492C45.7188 23.9128 45.5951 22.3698 45.4258 20.8203C45.2565 19.2578 45.0612 17.7018 44.8398 16.1523C44.7227 15.5924 44.4297 15.3125 43.9609 15.3125C43.9219 15.3125 43.8763 15.319 43.8242 15.332C43.7721 15.3451 43.7266 15.3516 43.6875 15.3516C42.8802 15.5339 42.1185 15.7161 41.4023 15.8984C40.6862 16.0807 40.0156 16.276 39.3906 16.4844C39.0391 16.6016 38.7266 16.6862 38.4531 16.7383C38.1797 16.7773 37.9323 16.7969 37.7109 16.7969C37.4115 16.7969 37.1901 16.6667 37.0469 16.4062C36.9036 16.1328 36.832 15.7943 36.832 15.3906C36.832 15.2474 36.8451 15.0846 36.8711 14.9023C36.8971 14.707 36.9492 14.5182 37.0273 14.3359C37.0924 14.1406 37.1966 13.9648 37.3398 13.8086C37.4701 13.6393 37.6523 13.5026 37.8867 13.3984C38.4336 13.1771 39.1628 12.9492 40.0742 12.7148C40.9857 12.4674 42.0143 12.2396 43.1602 12.0312C43.4206 11.9661 43.6224 11.862 43.7656 11.7188C43.9219 11.5625 44 11.3346 44 11.0352C44 10.9701 44 10.9049 44 10.8398C44 10.7617 43.987 10.6836 43.9609 10.6055C43.7526 9.40755 43.5508 8.32031 43.3555 7.34375C43.1732 6.35417 43.0104 5.50781 42.8672 4.80469C42.737 4.10156 42.6328 3.54818 42.5547 3.14453C42.4766 2.74089 42.4375 2.50651 42.4375 2.44141ZM56.4023 6.19141C56.4023 4.78516 57.3138 4.08203 59.1367 4.08203C59.4492 4.08203 59.7227 4.16667 59.957 4.33594C60.1914 4.50521 60.3281 4.73958 60.3672 5.03906C60.4844 5.83333 60.5885 6.62109 60.6797 7.40234C60.7708 8.18359 60.8555 9.0625 60.9336 10.0391C61.0247 11.0026 61.1094 12.1224 61.1875 13.3984C61.2786 14.6615 61.3763 16.1719 61.4805 17.9297C61.4805 18.112 61.5065 18.2422 61.5586 18.3203C61.6237 18.3984 61.6953 18.4375 61.7734 18.4375C61.8906 18.4375 62.0078 18.3203 62.125 18.0859C62.5677 17.1094 63.0625 16.237 63.6094 15.4688C64.1562 14.6875 64.7422 14.0299 65.3672 13.4961C65.9922 12.9492 66.6497 12.5391 67.3398 12.2656C68.043 11.9792 68.7591 11.8359 69.4883 11.8359C70.4518 11.8359 71.3242 12.1094 72.1055 12.6562C72.8867 13.2031 73.5508 13.9779 74.0977 14.9805C74.6445 15.9831 75.0677 17.2005 75.3672 18.6328C75.6667 20.0521 75.8164 21.6406 75.8164 23.3984C75.8164 23.8802 75.7773 24.2773 75.6992 24.5898C75.6341 24.8893 75.5169 25.1302 75.3477 25.3125C75.1784 25.4948 74.944 25.6185 74.6445 25.6836C74.3451 25.7617 73.974 25.8008 73.5312 25.8008C72.9193 25.8008 72.4766 25.6836 72.2031 25.4492C71.9427 25.2148 71.8125 24.8503 71.8125 24.3555C71.8125 23.1315 71.7279 21.9792 71.5586 20.8984C71.4023 19.8047 71.181 18.8477 70.8945 18.0273C70.6081 17.207 70.2695 16.556 69.8789 16.0742C69.5013 15.5924 69.0911 15.3516 68.6484 15.3516C67.6458 15.3516 66.6432 16.1654 65.6406 17.793C64.651 19.4206 63.6159 21.875 62.5352 25.1562C62.431 25.4557 62.3138 25.7031 62.1836 25.8984C62.0534 26.0938 61.8971 26.25 61.7148 26.3672C61.5456 26.4844 61.3372 26.5625 61.0898 26.6016C60.8424 26.6536 60.5495 26.6797 60.2109 26.6797C59.5208 26.6797 59.026 26.5495 58.7266 26.2891C58.4401 26.0286 58.2839 25.599 58.2578 25C58.1797 22.7344 58.0365 20.5729 57.8281 18.5156C57.6328 16.4453 57.4245 14.5768 57.2031 12.9102C56.9948 11.2305 56.806 9.8112 56.6367 8.65234C56.4805 7.48047 56.4023 6.66016 56.4023 6.19141ZM90.6992 7.92969C91.4154 7.92969 92.1055 8.04036 92.7695 8.26172C93.4336 8.48307 94.0195 8.78906 94.5273 9.17969C95.0352 9.57031 95.4388 10.0391 95.7383 10.5859C96.0508 11.1328 96.207 11.7383 96.207 12.4023C96.207 12.6758 96.1419 12.9427 96.0117 13.2031C95.8945 13.4505 95.7318 13.6719 95.5234 13.8672C95.3151 14.0495 95.0742 14.1992 94.8008 14.3164C94.5404 14.4206 94.2669 14.4727 93.9805 14.4727C93.9544 14.4727 93.9284 14.4792 93.9023 14.4922C93.8893 14.4922 93.8698 14.4922 93.8438 14.4922C93.8177 14.5052 93.7917 14.5117 93.7656 14.5117L93.8438 16.0742C93.8958 17.9362 94.1562 19.2969 94.625 20.1562C95.1068 21.0156 95.7318 21.4453 96.5 21.4453C96.7734 21.4453 97.0143 21.4193 97.2227 21.3672C97.444 21.3151 97.6458 21.2565 97.8281 21.1914C98.0234 21.1133 98.2057 21.0482 98.375 20.9961C98.5443 20.944 98.7135 20.918 98.8828 20.918C99.1823 20.918 99.4427 21.0482 99.6641 21.3086C99.8984 21.569 100.016 21.8815 100.016 22.2461C100.016 22.6107 99.8724 22.9753 99.5859 23.3398C99.3125 23.7044 98.9479 24.0365 98.4922 24.3359C98.0365 24.6224 97.5221 24.8568 96.9492 25.0391C96.3763 25.2214 95.7969 25.3125 95.2109 25.3125C94.1953 25.3125 93.3034 24.8958 92.5352 24.0625C91.7669 23.2161 91.2201 21.9792 90.8945 20.3516C90.8164 20.0911 90.7122 19.9609 90.582 19.9609C90.4258 19.9609 90.2891 20.0391 90.1719 20.1953C88.8828 21.8229 87.5091 23.0469 86.0508 23.8672C84.5924 24.6745 83.1536 25.0781 81.7344 25.0781C81.0703 25.0781 80.4714 24.9805 79.9375 24.7852C79.4036 24.5898 78.9479 24.3164 78.5703 23.9648C78.2057 23.6003 77.9193 23.1641 77.7109 22.6562C77.5156 22.1354 77.418 21.556 77.418 20.918C77.418 20.0195 77.6133 19.0755 78.0039 18.0859C78.4076 17.0964 78.9479 16.1198 79.625 15.1562C80.3021 14.1927 81.0833 13.2747 81.9688 12.4023C82.8672 11.5299 83.8047 10.7617 84.7812 10.0977C85.7708 9.43359 86.7734 8.90625 87.7891 8.51562C88.8047 8.125 89.7747 7.92969 90.6992 7.92969ZM90.0547 14.6875C90.2891 14.2448 90.5039 13.9258 90.6992 13.7305C90.8945 13.5221 91.1745 13.3854 91.5391 13.3203C91.8255 13.2812 91.9688 13.1901 91.9688 13.0469C91.9688 12.9427 91.9297 12.832 91.8516 12.7148C91.6042 12.3763 91.3438 12.0833 91.0703 11.8359C90.7969 11.5755 90.4323 11.4453 89.9766 11.4453C89.4818 11.4453 88.9284 11.5885 88.3164 11.875C87.7044 12.1615 87.0794 12.5456 86.4414 13.0273C85.8164 13.4961 85.1979 14.0365 84.5859 14.6484C83.987 15.2474 83.4531 15.8659 82.9844 16.5039C82.5156 17.1419 82.138 17.7734 81.8516 18.3984C81.5651 19.0234 81.4219 19.5833 81.4219 20.0781C81.4219 20.5208 81.5391 20.8659 81.7734 21.1133C82.0208 21.3607 82.3529 21.4844 82.7695 21.4844C83.8372 21.4844 85.0026 20.918 86.2656 19.7852C87.5286 18.6523 88.7917 16.9531 90.0547 14.6875ZM102.477 2.44141C102.477 1.7513 102.672 1.26953 103.062 0.996094C103.453 0.709635 104.098 0.566406 104.996 0.566406C105.322 0.566406 105.595 0.598958 105.816 0.664062C106.051 0.716146 106.246 0.820312 106.402 0.976562C106.572 1.13281 106.702 1.34115 106.793 1.60156C106.897 1.84896 106.982 2.16797 107.047 2.55859C107.203 3.76953 107.372 5.01953 107.555 6.30859C107.75 7.59766 107.952 8.89323 108.16 10.1953C108.238 10.7812 108.544 11.0742 109.078 11.0742C109.221 11.0742 109.456 11.0612 109.781 11.0352C110.12 10.9961 110.517 10.957 110.973 10.918C111.428 10.8659 111.917 10.8138 112.438 10.7617C112.971 10.7096 113.499 10.6641 114.02 10.625C114.553 10.5729 115.055 10.5339 115.523 10.5078C116.005 10.4688 116.428 10.4492 116.793 10.4492C117.079 10.4492 117.307 10.5078 117.477 10.625C117.646 10.7292 117.776 10.8724 117.867 11.0547C117.971 11.224 118.036 11.4193 118.062 11.6406C118.102 11.849 118.121 12.0638 118.121 12.2852C118.121 12.4805 118.082 12.6823 118.004 12.8906C117.939 13.099 117.841 13.2878 117.711 13.457C117.594 13.6133 117.444 13.7435 117.262 13.8477C117.079 13.9518 116.871 14.0039 116.637 14.0039C115.504 14.0039 114.358 14.043 113.199 14.1211C112.053 14.1862 110.908 14.2773 109.762 14.3945C109.176 14.4727 108.883 14.7656 108.883 15.2734C108.883 15.3125 108.889 15.3646 108.902 15.4297C108.915 15.4818 108.922 15.5273 108.922 15.5664C109.078 16.6992 109.221 17.7604 109.352 18.75C109.495 19.7396 109.612 20.625 109.703 21.4062C109.807 22.1745 109.885 22.819 109.938 23.3398C110.003 23.8477 110.035 24.1862 110.035 24.3555C110.035 24.8242 109.99 25.2148 109.898 25.5273C109.807 25.8529 109.658 26.1133 109.449 26.3086C109.241 26.5169 108.961 26.6602 108.609 26.7383C108.271 26.8294 107.841 26.875 107.32 26.875C106.826 26.875 106.461 26.7578 106.227 26.5234C105.992 26.2891 105.862 25.931 105.836 25.4492C105.758 23.9128 105.634 22.3698 105.465 20.8203C105.296 19.2578 105.1 17.7018 104.879 16.1523C104.762 15.5924 104.469 15.3125 104 15.3125C103.961 15.3125 103.915 15.319 103.863 15.332C103.811 15.3451 103.766 15.3516 103.727 15.3516C102.919 15.5339 102.158 15.7161 101.441 15.8984C100.725 16.0807 100.055 16.276 99.4297 16.4844C99.0781 16.6016 98.7656 16.6862 98.4922 16.7383C98.2188 16.7773 97.9714 16.7969 97.75 16.7969C97.4505 16.7969 97.2292 16.6667 97.0859 16.4062C96.9427 16.1328 96.8711 15.7943 96.8711 15.3906C96.8711 15.2474 96.8841 15.0846 96.9102 14.9023C96.9362 14.707 96.9883 14.5182 97.0664 14.3359C97.1315 14.1406 97.2357 13.9648 97.3789 13.8086C97.5091 13.6393 97.6914 13.5026 97.9258 13.3984C98.4727 13.1771 99.2018 12.9492 100.113 12.7148C101.025 12.4674 102.053 12.2396 103.199 12.0312C103.46 11.9661 103.661 11.862 103.805 11.7188C103.961 11.5625 104.039 11.3346 104.039 11.0352C104.039 10.9701 104.039 10.9049 104.039 10.8398C104.039 10.7617 104.026 10.6836 104 10.6055C103.792 9.40755 103.59 8.32031 103.395 7.34375C103.212 6.35417 103.049 5.50781 102.906 4.80469C102.776 4.10156 102.672 3.54818 102.594 3.14453C102.516 2.74089 102.477 2.50651 102.477 2.44141ZM121.852 8.04688C122.724 8.04688 123.622 8.16406 124.547 8.39844C125.471 8.61979 126.318 8.91276 127.086 9.27734C127.854 9.62891 128.486 10.026 128.98 10.4688C129.475 10.9115 129.723 11.3411 129.723 11.7578C129.723 11.9661 129.632 12.2005 129.449 12.4609C129.267 12.7083 129.046 12.9492 128.785 13.1836C128.525 13.4049 128.238 13.5938 127.926 13.75C127.626 13.8932 127.359 13.9648 127.125 13.9648C126.812 13.9648 126.461 13.8346 126.07 13.5742C125.693 13.3138 125.27 13.0273 124.801 12.7148C124.345 12.3893 123.844 12.0964 123.297 11.8359C122.75 11.5755 122.158 11.4453 121.52 11.4453C121.103 11.4453 120.758 11.5495 120.484 11.7578C120.224 11.9531 120.094 12.2331 120.094 12.5977C120.094 12.9232 120.25 13.2552 120.562 13.5938C120.875 13.9193 121.285 14.2578 121.793 14.6094C122.314 14.9609 122.9 15.332 123.551 15.7227C124.202 16.1133 124.866 16.5299 125.543 16.9727C126.233 17.4154 126.904 17.8971 127.555 18.418C128.206 18.9388 128.785 19.5052 129.293 20.1172C129.814 20.7292 130.23 21.3997 130.543 22.1289C130.855 22.8451 131.012 23.6263 131.012 24.4727C131.012 25.2018 130.882 25.8659 130.621 26.4648C130.361 27.0638 129.99 27.5781 129.508 28.0078C129.026 28.4375 128.453 28.7695 127.789 29.0039C127.125 29.2383 126.396 29.3555 125.602 29.3555C124.599 29.3555 123.674 29.1992 122.828 28.8867C121.982 28.5872 121.253 28.1706 120.641 27.6367C120.029 27.1029 119.547 26.4648 119.195 25.7227C118.857 24.9805 118.688 24.1667 118.688 23.2812C118.688 22.1354 118.889 21.3021 119.293 20.7812C119.71 20.2604 120.361 20 121.246 20C121.793 20 122.229 20.1042 122.555 20.3125C122.88 20.5208 123.043 20.7747 123.043 21.0742C123.043 21.2305 123.017 21.3932 122.965 21.5625C122.913 21.7188 122.854 21.888 122.789 22.0703C122.737 22.2396 122.685 22.4219 122.633 22.6172C122.594 22.8125 122.574 23.0078 122.574 23.2031C122.574 23.5417 122.652 23.8672 122.809 24.1797C122.965 24.4922 123.173 24.7656 123.434 25C123.707 25.2474 124.02 25.4427 124.371 25.5859C124.723 25.7292 125.094 25.8008 125.484 25.8008C126.526 25.8008 127.047 25.3711 127.047 24.5117C127.047 23.8346 126.78 23.1966 126.246 22.5977C125.712 21.9857 125.042 21.3932 124.234 20.8203C123.427 20.2344 122.555 19.6484 121.617 19.0625C120.693 18.4766 119.827 17.8646 119.02 17.2266C118.212 16.5885 117.542 15.9115 117.008 15.1953C116.474 14.4661 116.207 13.6784 116.207 12.832C116.207 12.1289 116.35 11.4844 116.637 10.8984C116.936 10.3125 117.34 9.8112 117.848 9.39453C118.355 8.96484 118.948 8.63281 119.625 8.39844C120.315 8.16406 121.057 8.04688 121.852 8.04688ZM142.945 25.8398C142.854 24.1081 142.704 22.513 142.496 21.0547C142.301 19.5833 142.092 18.3008 141.871 17.207C141.663 16.1133 141.474 15.2279 141.305 14.5508C141.148 13.8737 141.07 13.4505 141.07 13.2812C141.07 13.0339 141.161 12.793 141.344 12.5586C141.539 12.3242 141.78 12.1224 142.066 11.9531C142.353 11.7708 142.659 11.6276 142.984 11.5234C143.323 11.4193 143.629 11.3672 143.902 11.3672C144.124 11.3672 144.312 11.4062 144.469 11.4844C144.638 11.5625 144.755 11.6927 144.82 11.875C144.885 12.0964 144.944 12.3307 144.996 12.5781C145.061 12.8125 145.126 13.099 145.191 13.4375C145.27 13.9193 145.374 14.1602 145.504 14.1602C145.647 14.1602 145.81 13.9453 145.992 13.5156C146.253 12.9167 146.533 12.4219 146.832 12.0312C147.132 11.6406 147.451 11.3346 147.789 11.1133C148.141 10.8789 148.499 10.7161 148.863 10.625C149.241 10.5339 149.632 10.4883 150.035 10.4883C151.259 10.4883 152.294 10.9701 153.141 11.9336C154 12.8971 154.671 14.2904 155.152 16.1133C155.217 16.3216 155.276 16.4583 155.328 16.5234C155.38 16.5755 155.439 16.6016 155.504 16.6016C155.569 16.6016 155.634 16.5755 155.699 16.5234C155.777 16.4583 155.849 16.3346 155.914 16.1523C156.227 15.306 156.591 14.5898 157.008 14.0039C157.424 13.4049 157.854 12.9232 158.297 12.5586C158.753 12.181 159.215 11.9076 159.684 11.7383C160.152 11.569 160.602 11.4844 161.031 11.4844C161.826 11.4844 162.542 11.7773 163.18 12.3633C163.831 12.9362 164.404 13.8281 164.898 15.0391C165.406 16.237 165.842 17.7604 166.207 19.6094C166.585 21.4453 166.897 23.6263 167.145 26.1523C167.145 26.8555 166.93 27.3438 166.5 27.6172C166.07 27.9036 165.484 28.0469 164.742 28.0469C164.26 28.0469 163.883 27.9427 163.609 27.7344C163.336 27.526 163.18 27.2526 163.141 26.9141C162.971 25.1042 162.783 23.4961 162.574 22.0898C162.379 20.6706 162.164 19.4792 161.93 18.5156C161.695 17.5391 161.435 16.7969 161.148 16.2891C160.875 15.7812 160.569 15.5273 160.23 15.5273C160.061 15.5273 159.846 15.651 159.586 15.8984C159.339 16.1458 159.072 16.6016 158.785 17.2656C158.499 17.9167 158.199 18.8151 157.887 19.9609C157.574 21.0938 157.275 22.5456 156.988 24.3164C156.91 24.8112 156.669 25.1888 156.266 25.4492C155.875 25.7096 155.393 25.8398 154.82 25.8398C154.156 25.8398 153.694 25.7357 153.434 25.5273C153.186 25.319 153.049 24.9674 153.023 24.4727C152.971 23.6133 152.88 22.7604 152.75 21.9141C152.633 21.0547 152.483 20.2409 152.301 19.4727C152.118 18.6914 151.917 17.9753 151.695 17.3242C151.474 16.6602 151.24 16.0872 150.992 15.6055C150.745 15.1107 150.491 14.7266 150.23 14.4531C149.97 14.1797 149.716 14.043 149.469 14.043C149.143 14.043 148.824 14.2708 148.512 14.7266C148.212 15.1823 147.939 15.8268 147.691 16.6602C147.457 17.4935 147.268 18.4961 147.125 19.668C146.982 20.8398 146.91 22.1484 146.91 23.5938C146.91 23.8411 146.917 24.0885 146.93 24.3359C146.943 24.5703 146.949 24.8177 146.949 25.0781C146.949 25.4688 146.884 25.7878 146.754 26.0352C146.637 26.2826 146.461 26.4779 146.227 26.6211C146.005 26.7643 145.745 26.862 145.445 26.9141C145.146 26.9661 144.82 26.9922 144.469 26.9922C144.143 26.9922 143.883 26.9661 143.688 26.9141C143.492 26.875 143.342 26.8099 143.238 26.7188C143.134 26.6276 143.062 26.5039 143.023 26.3477C142.984 26.2044 142.958 26.0352 142.945 25.8398ZM186.227 20.7227C186.604 20.3971 186.975 20.2344 187.34 20.2344C187.548 20.2344 187.737 20.2865 187.906 20.3906C188.076 20.4948 188.264 20.6576 188.473 20.8789C188.668 21.1784 188.805 21.4258 188.883 21.6211C188.974 21.8034 189.02 21.9857 189.02 22.168C189.02 22.5586 188.824 22.9297 188.434 23.2812C187.809 23.8021 187.132 24.2708 186.402 24.6875C185.673 25.0911 184.911 25.4362 184.117 25.7227C183.323 26.0091 182.503 26.224 181.656 26.3672C180.81 26.5234 179.97 26.6016 179.137 26.6016C178.082 26.6016 177.092 26.4648 176.168 26.1914C175.243 25.931 174.417 25.5534 173.688 25.0586C172.971 24.5638 172.366 23.9714 171.871 23.2812C171.376 22.5781 171.025 21.7904 170.816 20.918C170.699 20.5534 170.589 20.319 170.484 20.2148C170.393 20.0977 170.237 20.0391 170.016 20.0391C169.534 20.0391 169.163 19.9219 168.902 19.6875C168.642 19.4531 168.512 19.1146 168.512 18.6719C168.512 18.4896 168.525 18.3724 168.551 18.3203L168.59 17.9297C168.655 17.4609 168.779 17.1224 168.961 16.9141C169.156 16.7057 169.456 16.6016 169.859 16.6016H170.152C170.699 16.6016 171.083 16.3477 171.305 15.8398C171.708 14.9414 172.223 14.1211 172.848 13.3789C173.473 12.6367 174.176 12.0052 174.957 11.4844C175.738 10.9505 176.572 10.5404 177.457 10.2539C178.355 9.95443 179.267 9.80469 180.191 9.80469C181.155 9.80469 182.053 9.94792 182.887 10.2344C183.733 10.5078 184.469 10.8919 185.094 11.3867C185.719 11.8815 186.207 12.4609 186.559 13.125C186.923 13.7891 187.105 14.5052 187.105 15.2734C187.105 15.8073 187.001 16.2956 186.793 16.7383C186.585 17.181 186.285 17.5716 185.895 17.9102C185.504 18.2357 185.029 18.5026 184.469 18.7109C183.922 18.9193 183.297 19.056 182.594 19.1211L175.816 19.8047C175.556 19.8047 175.341 19.8698 175.172 20C175.016 20.1302 174.938 20.306 174.938 20.5273C174.938 20.8659 175.061 21.1914 175.309 21.5039C175.569 21.8164 175.908 22.0964 176.324 22.3438C176.754 22.5781 177.242 22.7669 177.789 22.9102C178.349 23.0534 178.922 23.125 179.508 23.125C180.068 23.125 180.641 23.0729 181.227 22.9688C181.826 22.8516 182.411 22.6888 182.984 22.4805C183.57 22.2721 184.137 22.0247 184.684 21.7383C185.23 21.4388 185.745 21.1003 186.227 20.7227ZM181.871 15.6836C182.066 15.6445 182.236 15.5534 182.379 15.4102C182.522 15.2539 182.594 15.0651 182.594 14.8438C182.594 14.6484 182.522 14.4661 182.379 14.2969C182.236 14.1276 182.04 13.9779 181.793 13.8477C181.546 13.7044 181.259 13.5938 180.934 13.5156C180.608 13.4375 180.263 13.3984 179.898 13.3984C179.365 13.3984 178.818 13.4766 178.258 13.6328C177.698 13.7891 177.19 13.9974 176.734 14.2578C176.279 14.5052 175.908 14.7852 175.621 15.0977C175.335 15.3971 175.191 15.6966 175.191 15.9961C175.191 16.2956 175.374 16.4453 175.738 16.4453C175.96 16.4453 176.318 16.4193 176.812 16.3672C177.307 16.3151 177.854 16.2565 178.453 16.1914C179.052 16.1133 179.658 16.0286 180.27 15.9375C180.882 15.8464 181.415 15.7617 181.871 15.6836Z" fill="white"/>
</svg>
