<?xml version="1.0" standalone="no"?>
<!DOCTYPE svg PUBLIC "-//W3C//DTD SVG 20010904//EN"
 "http://www.w3.org/TR/2001/REC-SVG-20010904/DTD/svg10.dtd">
<svg version="1.0" xmlns="http://www.w3.org/2000/svg"
 width="512.000000pt" height="512.000000pt" viewBox="0 0 512.000000 512.000000"
 preserveAspectRatio="xMidYMid meet">
<metadata>
Created by potrace 1.11, written by Peter Selinger 2001-2013
</metadata>
<g transform="translate(0.000000,512.000000) scale(0.100000,-0.100000)"
fill="#000000" stroke="none">
<path d="M923 4791 c-143 -90 -323 -507 -483 -1116 -29 -111 -38 -150 -76
-325 -40 -182 -64 -358 -71 -506 -5 -129 -5 -131 20 -160 l25 -29 126 2 c170
3 393 34 712 99 71 15 149 30 173 35 295 59 713 189 888 275 131 65 168 100
159 152 -24 153 -608 911 -995 1292 -256 253 -394 334 -478 281z"/>
<path d="M2250 4751 c0 -10 7 -42 15 -72 25 -89 45 -162 55 -199 5 -19 16 -60
24 -90 9 -30 34 -122 56 -205 22 -82 47 -175 55 -205 8 -30 33 -122 55 -205
38 -140 59 -218 79 -290 5 -16 14 -51 21 -77 7 -27 17 -48 23 -48 10 0 33 21
272 250 61 58 191 181 290 275 99 93 227 215 285 270 58 56 124 118 148 140
48 44 51 51 20 60 -13 4 -57 17 -98 30 -41 12 -100 30 -130 39 -30 8 -109 32
-175 52 -66 19 -151 45 -190 56 -38 10 -151 44 -250 73 -99 29 -236 70 -305
90 -69 20 -153 45 -187 55 -60 18 -63 18 -63 1z"/>
<path d="M3630 3761 c-8 -5 -32 -11 -52 -15 -20 -4 -50 -13 -65 -21 -15 -8
-35 -15 -43 -15 -8 0 -24 -7 -34 -15 -11 -8 -28 -15 -38 -15 -10 0 -18 -4 -18
-8 0 -4 -12 -13 -27 -19 -16 -7 -50 -25 -78 -42 -27 -17 -57 -34 -65 -38 -8
-4 -19 -11 -25 -15 -5 -5 -46 -32 -90 -60 -44 -29 -86 -58 -94 -66 -8 -8 -33
-25 -55 -39 -23 -14 -43 -29 -46 -33 -3 -4 -36 -31 -75 -61 -38 -29 -78 -60
-90 -70 -11 -9 -42 -36 -70 -59 -188 -157 -506 -465 -681 -660 -27 -30 -60
-66 -74 -81 -14 -15 -50 -57 -80 -94 -30 -37 -60 -73 -66 -79 -17 -18 -189
-248 -210 -281 -10 -16 -21 -32 -24 -35 -11 -9 -95 -154 -125 -215 -51 -104
-85 -211 -85 -266 0 -53 46 -132 115 -197 67 -64 277 -212 300 -212 8 0 15 -4
17 -8 4 -11 307 -162 324 -162 8 0 14 -4 14 -9 0 -5 13 -12 30 -16 16 -4 32
-11 35 -16 4 -5 13 -9 21 -9 14 0 90 -30 126 -50 10 -6 23 -10 29 -10 6 0 25
-7 42 -15 36 -16 141 -56 232 -86 33 -11 67 -24 75 -28 9 -5 31 -12 50 -16 19
-4 40 -11 45 -15 6 -4 27 -11 49 -14 21 -4 46 -11 55 -15 16 -8 71 -25 186
-56 33 -9 80 -23 105 -30 25 -7 79 -21 120 -30 41 -10 82 -21 90 -25 9 -4 40
-11 70 -15 30 -4 60 -11 65 -15 6 -4 39 -11 75 -15 36 -4 70 -10 75 -14 11 -7
121 -24 310 -48 160 -21 453 -23 545 -4 105 21 210 80 210 117 0 8 4 14 8 14
10 0 27 76 50 220 31 206 17 623 -32 915 -8 50 -20 122 -26 160 -6 39 -14 77
-17 85 -4 8 -12 42 -19 75 -13 64 -24 106 -48 195 -8 30 -20 75 -26 100 -6 25
-15 52 -19 60 -5 9 -12 35 -16 58 -4 23 -11 44 -15 47 -5 3 -12 26 -16 50 -3
25 -10 45 -15 45 -4 0 -11 20 -15 45 -3 25 -10 45 -14 45 -4 0 -11 16 -15 36
-3 20 -10 44 -15 53 -5 9 -25 55 -45 104 -36 89 -46 112 -109 250 -20 44 -36
83 -36 88 0 5 -4 9 -9 9 -5 0 -12 12 -16 27 -3 15 -10 30 -13 33 -4 3 -16 23
-27 45 -11 22 -31 56 -43 75 -13 19 -28 44 -33 55 -10 23 -31 58 -40 65 -3 3
-16 23 -29 45 -13 22 -29 45 -35 51 -5 6 -17 21 -25 34 -60 88 -167 198 -214
221 -42 20 -147 26 -176 10z"/>
</g>
</svg>
